<?plantuml 1.2026.1?><svg xmlns="http://www.w3.org/2000/svg" xmlns:xlink="http://www.w3.org/1999/xlink" contentStyleType="text/css" data-diagram-type="CLASS" height="764.0625px" preserveAspectRatio="none" style="width:1362px;height:764px;background:#FFFFFF;" version="1.1" viewBox="0 0 1362 764" width="1362.5px" zoomAndPan="magnify"><defs/><g><!--class LogService--><g class="entity" data-qualified-name="LogService" data-source-line="24" id="ent0002"><rect fill="#F5F5FF" height="255.0659" rx="3.9063" ry="3.9063" style="stroke:#666699;stroke-width:0.7813;" width="206.7123" x="920.6719" y="267.7031"/><ellipse cx="975.4129" cy="292.7031" fill="#ADD1B2" rx="17.1875" ry="17.1875" style="stroke:#181818;stroke-width:1.5625;"/><path d="M980.0515,301.5166 Q979.1482,301.9805 978.1472,302.2002 Q977.1463,302.4443 976.0476,302.4443 Q972.1414,302.4443 970.0662,299.8809 Q968.0154,297.293 968.0154,292.4102 Q968.0154,287.5273 970.0662,284.9395 Q972.1414,282.3516 976.0476,282.3516 Q977.1463,282.3516 978.1472,282.5957 Q979.1726,282.8398 980.0515,283.3037 L980.0515,287.5518 Q979.075,286.6484 978.1472,286.2334 Q977.2195,285.7939 976.2429,285.7939 Q974.1433,285.7939 973.0691,287.4785 Q971.9949,289.1387 971.9949,292.4102 Q971.9949,295.6816 973.0691,297.3662 Q974.1433,299.0264 976.2429,299.0264 Q977.2195,299.0264 978.1472,298.6113 Q979.075,298.1719 980.0515,297.2686 L980.0515,301.5166 Z " fill="#000000"/><text fill="#000000" font-family="sans-serif" font-size="14.0625" font-style="italic" lengthAdjust="spacing" textLength="83.4686" x="1006.0844" y="289.3866">&#171;Singleton&#187;</text><text fill="#000000" font-family="sans-serif" font-size="14.0625" font-weight="bold" lengthAdjust="spacing" textLength="87.149" x="1004.2442" y="305.7563">LogService</text><line style="stroke:#666699;stroke-width:0.7813;" x1="922.2344" x2="1125.8217" y1="317.7031" y2="317.7031"/><text fill="#000000" font-family="sans-serif" font-size="14.0625" lengthAdjust="spacing" textLength="162.6938" x="930.0469" y="337.0063">-_instance : LogService</text><text fill="#000000" font-family="sans-serif" font-size="14.0625" lengthAdjust="spacing" textLength="96.3158" x="930.0469" y="353.3759">-_clients : List</text><text fill="#000000" font-family="sans-serif" font-size="14.0625" lengthAdjust="spacing" textLength="98.7328" x="930.0469" y="369.7455">-_history : List</text><text fill="#000000" font-family="sans-serif" font-size="14.0625" lengthAdjust="spacing" textLength="107.1922" x="930.0469" y="386.1151">-_log_file : Path</text><line style="stroke:#666699;stroke-width:1.5625;" x1="922.2344" x2="1125.8217" y1="395.6816" y2="395.6816"/><text fill="#000000" font-family="sans-serif" font-size="14.0625" lengthAdjust="spacing" textLength="136.8622" x="930.0469" y="414.9848">+get() : LogService</text><text fill="#000000" font-family="sans-serif" font-size="14.0625" lengthAdjust="spacing" textLength="187.9623" x="930.0469" y="431.3544">+log(msg, level, src) : Dict</text><text fill="#000000" font-family="sans-serif" font-size="14.0625" lengthAdjust="spacing" textLength="108.8608" x="930.0469" y="447.724">+info(msg, src)</text><text fill="#000000" font-family="sans-serif" font-size="14.0625" lengthAdjust="spacing" textLength="139.0457" x="930.0469" y="464.0937">+warning(msg, src)</text><text fill="#000000" font-family="sans-serif" font-size="14.0625" lengthAdjust="spacing" textLength="117.0868" x="930.0469" y="480.4633">+error(msg, src)</text><text fill="#000000" font-family="sans-serif" font-size="14.0625" lengthAdjust="spacing" textLength="170.4391" x="930.0469" y="496.8329">+get_history(limit) : List</text><text fill="#000000" font-family="sans-serif" font-size="14.0625" lengthAdjust="spacing" textLength="112.8433" x="930.0469" y="513.2025">+clear_history()</text></g><!--class ParserService--><g class="entity" data-qualified-name="ParserService" data-source-line="39" id="ent0003"><rect fill="#F5F5FF" height="124.1089" rx="3.9063" ry="3.9063" style="stroke:#666699;stroke-width:0.7813;" width="277.4712" x="332.1563" y="43.6719"/><ellipse cx="409.2337" cy="68.6719" fill="#ADD1B2" rx="17.1875" ry="17.1875" style="stroke:#181818;stroke-width:1.5625;"/><path d="M413.8724,77.4854 Q412.9691,77.9492 411.9681,78.1689 Q410.9671,78.4131 409.8685,78.4131 Q405.9622,78.4131 403.8871,75.8496 Q401.8363,73.2617 401.8363,68.3789 Q401.8363,63.4961 403.8871,60.9082 Q405.9622,58.3203 409.8685,58.3203 Q410.9671,58.3203 411.9681,58.5645 Q412.9935,58.8086 413.8724,59.2725 L413.8724,63.5205 Q412.8958,62.6172 411.9681,62.2021 Q411.0404,61.7627 410.0638,61.7627 Q407.9642,61.7627 406.89,63.4473 Q405.8158,65.1074 405.8158,68.3789 Q405.8158,71.6504 406.89,73.335 Q407.9642,74.9951 410.0638,74.9951 Q411.0404,74.9951 411.9681,74.5801 Q412.8958,74.1406 413.8724,73.2373 L413.8724,77.4854 Z " fill="#000000"/><text fill="#000000" font-family="sans-serif" font-size="14.0625" font-weight="bold" lengthAdjust="spacing" textLength="110.0349" x="441.265" y="73.5402">ParserService</text><line style="stroke:#666699;stroke-width:0.7813;" x1="333.7188" x2="608.0649" y1="93.6719" y2="93.6719"/><text fill="#000000" font-family="sans-serif" font-size="14.0625" lengthAdjust="spacing" textLength="147.5945" x="341.5313" y="112.975">+logger : LogService</text><line style="stroke:#666699;stroke-width:1.5625;" x1="333.7188" x2="608.0649" y1="122.5415" y2="122.5415"/><text fill="#000000" font-family="sans-serif" font-size="14.0625" lengthAdjust="spacing" textLength="258.7212" x="341.5313" y="141.8446">+extract(type, folder, date, ...) : Dict</text><text fill="#000000" font-family="sans-serif" font-size="14.0625" lengthAdjust="spacing" textLength="184.5634" x="341.5313" y="158.2143">+auto_correct(data) : Dict</text></g><!--class ExporterService--><g class="entity" data-qualified-name="ExporterService" data-source-line="46" id="ent0004"><rect fill="#F5F5FF" height="140.4785" rx="3.9063" ry="3.9063" style="stroke:#666699;stroke-width:0.7813;" width="325.3578" x="648.8438" y="35.4844"/><ellipse cx="741.3845" cy="60.4844" fill="#ADD1B2" rx="17.1875" ry="17.1875" style="stroke:#181818;stroke-width:1.5625;"/><path d="M746.0232,69.2979 Q745.1198,69.7617 744.1189,69.9814 Q743.1179,70.2256 742.0193,70.2256 Q738.113,70.2256 736.0378,67.6621 Q733.987,65.0742 733.987,60.1914 Q733.987,55.3086 736.0378,52.7207 Q738.113,50.1328 742.0193,50.1328 Q743.1179,50.1328 744.1189,50.377 Q745.1443,50.6211 746.0232,51.085 L746.0232,55.333 Q745.0466,54.4297 744.1189,54.0146 Q743.1911,53.5752 742.2146,53.5752 Q740.115,53.5752 739.0407,55.2598 Q737.9665,56.9199 737.9665,60.1914 Q737.9665,63.4629 739.0407,65.1475 Q740.115,66.8076 742.2146,66.8076 Q743.1911,66.8076 744.1189,66.3926 Q745.0466,65.9531 746.0232,65.0498 L746.0232,69.2979 Z " fill="#000000"/><text fill="#000000" font-family="sans-serif" font-size="14.0625" font-weight="bold" lengthAdjust="spacing" textLength="126.9951" x="773.4157" y="65.3527">ExporterService</text><line style="stroke:#666699;stroke-width:0.7813;" x1="650.4063" x2="972.6391" y1="85.4844" y2="85.4844"/><text fill="#000000" font-family="sans-serif" font-size="14.0625" lengthAdjust="spacing" textLength="147.5945" x="658.2188" y="104.7875">+logger : LogService</text><line style="stroke:#666699;stroke-width:1.5625;" x1="650.4063" x2="972.6391" y1="114.354" y2="114.354"/><text fill="#000000" font-family="sans-serif" font-size="14.0625" lengthAdjust="spacing" textLength="306.6078" x="658.2188" y="133.6571">+export_csv(data, type, folder, date) : Path</text><text fill="#000000" font-family="sans-serif" font-size="14.0625" lengthAdjust="spacing" textLength="254.9789" x="658.2188" y="150.0268">+export_all(dc, dw, mc, wt, ...) : List</text><text fill="#000000" font-family="sans-serif" font-size="14.0625" lengthAdjust="spacing" textLength="182.6477" x="658.2188" y="166.3964">+list_exports(folder) : List</text></g><!--class AuthRouter--><g class="entity" data-qualified-name="AuthRouter" data-source-line="58" id="ent0005"><rect fill="#F5F5FF" height="189.5874" rx="3.9063" ry="3.9063" style="stroke:#666699;stroke-width:0.7813;" width="305.4039" x="1046.3125" y="10.9375"/><ellipse cx="1146.7119" cy="35.9375" fill="#ADD1B2" rx="17.1875" ry="17.1875" style="stroke:#181818;stroke-width:1.5625;"/><path d="M1151.3506,44.751 Q1150.4473,45.2148 1149.4463,45.4346 Q1148.4453,45.6787 1147.3467,45.6787 Q1143.4404,45.6787 1141.3652,43.1152 Q1139.3144,40.5273 1139.3144,35.6445 Q1139.3144,30.7617 1141.3652,28.1738 Q1143.4404,25.5859 1147.3467,25.5859 Q1148.4453,25.5859 1149.4463,25.8301 Q1150.4717,26.0742 1151.3506,26.5381 L1151.3506,30.7861 Q1150.374,29.8828 1149.4463,29.4678 Q1148.5185,29.0283 1147.542,29.0283 Q1145.4424,29.0283 1144.3681,30.7129 Q1143.2939,32.373 1143.2939,35.6445 Q1143.2939,38.916 1144.3681,40.6006 Q1145.4424,42.2607 1147.542,42.2607 Q1148.5185,42.2607 1149.4463,41.8457 Q1150.374,41.4063 1151.3506,40.5029 L1151.3506,44.751 Z " fill="#000000"/><text fill="#000000" font-family="sans-serif" font-size="14.0625" font-style="italic" lengthAdjust="spacing" textLength="86.689" x="1181.0606" y="32.621">&#171;Controller&#187;</text><text fill="#000000" font-family="sans-serif" font-size="14.0625" font-weight="bold" lengthAdjust="spacing" textLength="91.3239" x="1178.7431" y="48.9906">AuthRouter</text><line style="stroke:#666699;stroke-width:0.7813;" x1="1047.875" x2="1350.1539" y1="60.9375" y2="60.9375"/><line style="stroke:#666699;stroke-width:0.7813;" x1="1047.875" x2="1350.1539" y1="73.4375" y2="73.4375"/><text fill="#000000" font-family="sans-serif" font-size="14.0625" lengthAdjust="spacing" textLength="231.1661" x="1055.6875" y="92.7406">+register(user: Utilisateur) : Dict</text><text fill="#000000" font-family="sans-serif" font-size="14.0625" lengthAdjust="spacing" textLength="213.4026" x="1055.6875" y="109.1103">+login(email, password) : Dict</text><text fill="#000000" font-family="sans-serif" font-size="14.0625" lengthAdjust="spacing" textLength="162.6457" x="1055.6875" y="125.4799">+logout(request) : Dict</text><text fill="#000000" font-family="sans-serif" font-size="14.0625" lengthAdjust="spacing" textLength="129.1374" x="1055.6875" y="141.8495">+get_users() : List</text><text fill="#000000" font-family="sans-serif" font-size="14.0625" lengthAdjust="spacing" textLength="259.2773" x="1055.6875" y="158.2191">+create_user(user: Utilisateur) : Dict</text><text fill="#000000" font-family="sans-serif" font-size="14.0625" lengthAdjust="spacing" textLength="286.6539" x="1055.6875" y="174.5888">+update_user(id, data: Utilisateur) : Dict</text><text fill="#000000" font-family="sans-serif" font-size="14.0625" lengthAdjust="spacing" textLength="159.2537" x="1055.6875" y="190.9584">+delete_user(id) : Dict</text></g><!--class ReportType--><g class="entity" data-qualified-name="ReportType" data-source-line="72" id="ent0006"><rect fill="#F5F5FF" height="156.8481" rx="3.9063" ry="3.9063" style="stroke:#666699;stroke-width:0.7813;" width="142.1135" x="738.9063" y="316.8125"/><ellipse cx="762.3438" cy="341.8125" fill="#ADD1B2" rx="17.1875" ry="17.1875" style="stroke:#181818;stroke-width:1.5625;"/><path d="M766.9824,350.626 Q766.0791,351.0898 765.0781,351.3096 Q764.0771,351.5537 762.9785,351.5537 Q759.0723,351.5537 756.9971,348.9902 Q754.9463,346.4023 754.9463,341.5195 Q754.9463,336.6367 756.9971,334.0488 Q759.0723,331.4609 762.9785,331.4609 Q764.0771,331.4609 765.0781,331.7051 Q766.1035,331.9492 766.9824,332.4131 L766.9824,336.6611 Q766.0059,335.7578 765.0781,335.3428 Q764.1504,334.9033 763.1738,334.9033 Q761.0742,334.9033 760,336.5879 Q758.9258,338.248 758.9258,341.5195 Q758.9258,344.791 760,346.4756 Q761.0742,348.1357 763.1738,348.1357 Q764.1504,348.1357 765.0781,347.7207 Q766.0059,347.2813 766.9824,346.3779 L766.9824,350.626 Z " fill="#000000"/><text fill="#000000" font-family="sans-serif" font-size="14.0625" font-style="italic" lengthAdjust="spacing" textLength="57.6164" x="801.4673" y="338.496">&#171;Enum&#187;</text><text fill="#000000" font-family="sans-serif" font-size="14.0625" font-weight="bold" lengthAdjust="spacing" textLength="92.1135" x="784.2188" y="354.8656">ReportType</text><line style="stroke:#666699;stroke-width:0.7813;" x1="740.4688" x2="879.4572" y1="366.8125" y2="366.8125"/><text fill="#000000" font-family="sans-serif" font-size="14.0625" lengthAdjust="spacing" textLength="41.0202" x="748.2813" y="386.1156">DAILY</text><text fill="#000000" font-family="sans-serif" font-size="14.0625" lengthAdjust="spacing" textLength="20.6474" x="748.2813" y="402.4853">DC</text><text fill="#000000" font-family="sans-serif" font-size="14.0625" lengthAdjust="spacing" textLength="24.733" x="748.2813" y="418.8549">DW</text><text fill="#000000" font-family="sans-serif" font-size="14.0625" lengthAdjust="spacing" textLength="69.31" x="748.2813" y="435.2245">MONTHLY</text><text fill="#000000" font-family="sans-serif" font-size="14.0625" lengthAdjust="spacing" textLength="80.4817" x="748.2813" y="451.5941">WELL_TEST</text><line style="stroke:#666699;stroke-width:0.7813;" x1="740.4688" x2="879.4572" y1="461.1606" y2="461.1606"/></g><!--class ColumnSchema--><g class="entity" data-qualified-name="ColumnSchema" data-source-line="84" id="ent0007"><rect fill="#F5F5FF" height="124.1089" rx="3.9063" ry="3.9063" style="stroke:#666699;stroke-width:0.7813;" width="171.6324" x="528.8281" y="333.1875"/><ellipse cx="552.2656" cy="358.1875" fill="#ADD1B2" rx="17.1875" ry="17.1875" style="stroke:#181818;stroke-width:1.5625;"/><path d="M556.9043,367.001 Q556.001,367.4648 555,367.6846 Q553.999,367.9287 552.9004,367.9287 Q548.9941,367.9287 546.9189,365.3652 Q544.8682,362.7773 544.8682,357.8945 Q544.8682,353.0117 546.9189,350.4238 Q548.9941,347.8359 552.9004,347.8359 Q553.999,347.8359 555,348.0801 Q556.0254,348.3242 556.9043,348.7881 L556.9043,353.0361 Q555.9277,352.1328 555,351.7178 Q554.0723,351.2783 553.0957,351.2783 Q550.9961,351.2783 549.9219,352.9629 Q548.8477,354.623 548.8477,357.8945 Q548.8477,361.166 549.9219,362.8506 Q550.9961,364.5107 553.0957,364.5107 Q554.0723,364.5107 555,364.0957 Q555.9277,363.6563 556.9043,362.7529 L556.9043,367.001 Z " fill="#000000"/><text fill="#000000" font-family="sans-serif" font-size="14.0625" font-weight="bold" lengthAdjust="spacing" textLength="121.6324" x="574.1406" y="363.0558">ColumnSchema</text><line style="stroke:#666699;stroke-width:0.7813;" x1="530.3906" x2="698.898" y1="383.1875" y2="383.1875"/><text fill="#000000" font-family="sans-serif" font-size="14.0625" lengthAdjust="spacing" textLength="105.4207" x="538.2031" y="402.4906">+attribute : str</text><text fill="#000000" font-family="sans-serif" font-size="14.0625" lengthAdjust="spacing" textLength="77.9961" x="538.2031" y="418.8603">+code : str</text><text fill="#000000" font-family="sans-serif" font-size="14.0625" lengthAdjust="spacing" textLength="141.3116" x="538.2031" y="435.2299">+column_index : int</text><line style="stroke:#666699;stroke-width:0.7813;" x1="530.3906" x2="698.898" y1="444.7964" y2="444.7964"/></g><!--class Concession--><g class="entity" data-qualified-name="Concession" data-source-line="90" id="ent0008"><rect fill="#F5F5FF" height="205.957" rx="3.9063" ry="3.9063" style="stroke:#666699;stroke-width:0.7813;" width="260.923" x="149.8125" y="292.2656"/><ellipse cx="229.0838" cy="317.2656" fill="#ADD1B2" rx="17.1875" ry="17.1875" style="stroke:#181818;stroke-width:1.5625;"/><path d="M233.7225,326.0791 Q232.8192,326.543 231.8182,326.7627 Q230.8172,327.0068 229.7186,327.0068 Q225.8123,327.0068 223.7371,324.4434 Q221.6864,321.8555 221.6864,316.9727 Q221.6864,312.0898 223.7371,309.502 Q225.8123,306.9141 229.7186,306.9141 Q230.8172,306.9141 231.8182,307.1582 Q232.8436,307.4023 233.7225,307.8662 L233.7225,312.1143 Q232.7459,311.2109 231.8182,310.7959 Q230.8905,310.3564 229.9139,310.3564 Q227.8143,310.3564 226.7401,312.041 Q225.6658,313.7012 225.6658,316.9727 Q225.6658,320.2441 226.7401,321.9287 Q227.8143,323.5889 229.9139,323.5889 Q230.8905,323.5889 231.8182,323.1738 Q232.7459,322.7344 233.7225,321.8311 L233.7225,326.0791 Z " fill="#000000"/><text fill="#000000" font-family="sans-serif" font-size="14.0625" font-weight="bold" lengthAdjust="spacing" textLength="89.0991" x="261.1151" y="322.1339">Concession</text><line style="stroke:#666699;stroke-width:0.7813;" x1="151.375" x2="409.173" y1="342.2656" y2="342.2656"/><text fill="#000000" font-family="sans-serif" font-size="14.0625" lengthAdjust="spacing" textLength="56.916" x="159.1875" y="361.5688">+id : str</text><text fill="#000000" font-family="sans-serif" font-size="14.0625" lengthAdjust="spacing" textLength="83.963" x="159.1875" y="377.9384">+name : str</text><text fill="#000000" font-family="sans-serif" font-size="14.0625" lengthAdjust="spacing" textLength="135.5713" x="159.1875" y="394.308">+dpr_file_alias : str</text><text fill="#000000" font-family="sans-serif" font-size="14.0625" lengthAdjust="spacing" textLength="113.8046" x="159.1875" y="410.6776">+dpr_sheet : str</text><text fill="#000000" font-family="sans-serif" font-size="14.0625" lengthAdjust="spacing" textLength="138.9565" x="159.1875" y="427.0473">+active_daily : bool</text><text fill="#000000" font-family="sans-serif" font-size="14.0625" lengthAdjust="spacing" textLength="163.147" x="159.1875" y="443.4169">+active_monthly : bool</text><text fill="#000000" font-family="sans-serif" font-size="14.0625" lengthAdjust="spacing" textLength="167.2806" x="159.1875" y="459.7865">+active_well_test : bool</text><text fill="#000000" font-family="sans-serif" font-size="14.0625" lengthAdjust="spacing" textLength="242.173" x="159.1875" y="476.1562">+mappings : ConcessionMappings</text><line style="stroke:#666699;stroke-width:0.7813;" x1="151.375" x2="409.173" y1="485.7227" y2="485.7227"/></g><!--class MappingEntry--><g class="entity" data-qualified-name="MappingEntry" data-source-line="101" id="ent0009"><rect fill="#F5F5FF" height="189.5874" rx="3.9063" ry="3.9063" style="stroke:#666699;stroke-width:0.7813;" width="165.1154" x="389.9063" y="564.9531"/><ellipse cx="415.2159" cy="589.9531" fill="#ADD1B2" rx="17.1875" ry="17.1875" style="stroke:#181818;stroke-width:1.5625;"/><path d="M419.8546,598.7666 Q418.9512,599.2305 417.9503,599.4502 Q416.9493,599.6943 415.8507,599.6943 Q411.9444,599.6943 409.8692,597.1309 Q407.8184,594.543 407.8184,589.6602 Q407.8184,584.7773 409.8692,582.1895 Q411.9444,579.6016 415.8507,579.6016 Q416.9493,579.6016 417.9503,579.8457 Q418.9757,580.0898 419.8546,580.5537 L419.8546,584.8018 Q418.878,583.8984 417.9503,583.4834 Q417.0225,583.0439 416.046,583.0439 Q413.9464,583.0439 412.8721,584.7285 Q411.7979,586.3887 411.7979,589.6602 Q411.7979,592.9316 412.8721,594.6162 Q413.9464,596.2764 416.046,596.2764 Q417.0225,596.2764 417.9503,595.8613 Q418.878,595.4219 419.8546,594.5186 L419.8546,598.7666 Z " fill="#000000"/><text fill="#000000" font-family="sans-serif" font-size="14.0625" font-weight="bold" lengthAdjust="spacing" textLength="110.955" x="437.5069" y="594.8214">MappingEntry</text><line style="stroke:#666699;stroke-width:0.7813;" x1="391.4688" x2="553.4591" y1="614.9531" y2="614.9531"/><text fill="#000000" font-family="sans-serif" font-size="14.0625" lengthAdjust="spacing" textLength="104.9057" x="399.2813" y="634.2563">+file_alias : str</text><text fill="#000000" font-family="sans-serif" font-size="14.0625" lengthAdjust="spacing" textLength="130.0507" x="399.2813" y="650.6259">+sheet_name : str</text><text fill="#000000" font-family="sans-serif" font-size="14.0625" lengthAdjust="spacing" textLength="146.0083" x="399.2813" y="666.9955">+template_type : str</text><text fill="#000000" font-family="sans-serif" font-size="14.0625" lengthAdjust="spacing" textLength="105.4207" x="399.2813" y="683.3651">+attribute : str</text><text fill="#000000" font-family="sans-serif" font-size="14.0625" lengthAdjust="spacing" textLength="146.3654" x="399.2813" y="699.7348">+attribute_code : str</text><text fill="#000000" font-family="sans-serif" font-size="14.0625" lengthAdjust="spacing" textLength="94.6953" x="399.2813" y="716.1044">+cell_ref : str</text><text fill="#000000" font-family="sans-serif" font-size="14.0625" lengthAdjust="spacing" textLength="71.3287" x="399.2813" y="732.474">+unit : str</text><line style="stroke:#666699;stroke-width:0.7813;" x1="391.4688" x2="553.4591" y1="742.0405" y2="742.0405"/></g><!--class UOMEntry--><g class="entity" data-qualified-name="UOMEntry" data-source-line="111" id="ent0010"><rect fill="#F5F5FF" height="124.1089" rx="3.9063" ry="3.9063" style="stroke:#666699;stroke-width:0.7813;" width="140.1146" x="210.2188" y="597.7031"/><ellipse cx="238.2939" cy="622.7031" fill="#ADD1B2" rx="17.1875" ry="17.1875" style="stroke:#181818;stroke-width:1.5625;"/><path d="M242.9325,631.5166 Q242.0292,631.9805 241.0282,632.2002 Q240.0273,632.4443 238.9286,632.4443 Q235.0224,632.4443 232.9472,629.8809 Q230.8964,627.293 230.8964,622.4102 Q230.8964,617.5273 232.9472,614.9395 Q235.0224,612.3516 238.9286,612.3516 Q240.0273,612.3516 241.0282,612.5957 Q242.0536,612.8398 242.9325,613.3037 L242.9325,617.5518 Q241.956,616.6484 241.0282,616.2334 Q240.1005,615.7939 239.1239,615.7939 Q237.0243,615.7939 235.9501,617.4785 Q234.8759,619.1387 234.8759,622.4102 Q234.8759,625.6816 235.9501,627.3662 Q237.0243,629.0264 239.1239,629.0264 Q240.1005,629.0264 241.0282,628.6113 Q241.956,628.1719 242.9325,627.2686 L242.9325,631.5166 Z " fill="#000000"/><text fill="#000000" font-family="sans-serif" font-size="14.0625" font-weight="bold" lengthAdjust="spacing" textLength="79.8088" x="261.1994" y="627.5714">UOMEntry</text><line style="stroke:#666699;stroke-width:0.7813;" x1="211.7813" x2="348.7708" y1="647.7031" y2="647.7031"/><text fill="#000000" font-family="sans-serif" font-size="14.0625" lengthAdjust="spacing" textLength="71.3287" x="219.5938" y="667.0063">+unit : str</text><text fill="#000000" font-family="sans-serif" font-size="14.0625" lengthAdjust="spacing" textLength="98.2521" x="219.5938" y="683.3759">+factor : float</text><text fill="#000000" font-family="sans-serif" font-size="14.0625" lengthAdjust="spacing" textLength="121.3646" x="219.5938" y="699.7455">+target_unit : str</text><line style="stroke:#666699;stroke-width:0.7813;" x1="211.7813" x2="348.7708" y1="709.312" y2="709.312"/></g><!--class QCRule--><g class="entity" data-qualified-name="QCRule" data-source-line="117" id="ent0011"><rect fill="#F5F5FF" height="124.1089" rx="3.9063" ry="3.9063" style="stroke:#666699;stroke-width:0.7813;" width="160.5423" x="10.9375" y="597.7031"/><ellipse cx="58.2565" cy="622.7031" fill="#ADD1B2" rx="17.1875" ry="17.1875" style="stroke:#181818;stroke-width:1.5625;"/><path d="M62.8952,631.5166 Q61.9919,631.9805 60.9909,632.2002 Q59.9899,632.4443 58.8913,632.4443 Q54.985,632.4443 52.9099,629.8809 Q50.8591,627.293 50.8591,622.4102 Q50.8591,617.5273 52.9099,614.9395 Q54.985,612.3516 58.8913,612.3516 Q59.9899,612.3516 60.9909,612.5957 Q62.0163,612.8398 62.8952,613.3037 L62.8952,617.5518 Q61.9186,616.6484 60.9909,616.2334 Q60.0632,615.7939 59.0866,615.7939 Q56.987,615.7939 55.9128,617.4785 Q54.8386,619.1387 54.8386,622.4102 Q54.8386,625.6816 55.9128,627.3662 Q56.987,629.0264 59.0866,629.0264 Q60.0632,629.0264 60.9909,628.6113 Q61.9186,628.1719 62.8952,627.2686 L62.8952,631.5166 Z " fill="#000000"/><text fill="#000000" font-family="sans-serif" font-size="14.0625" font-weight="bold" lengthAdjust="spacing" textLength="57.4722" x="85.4385" y="627.5714">QCRule</text><line style="stroke:#666699;stroke-width:0.7813;" x1="12.5" x2="169.9173" y1="647.7031" y2="647.7031"/><text fill="#000000" font-family="sans-serif" font-size="14.0625" lengthAdjust="spacing" textLength="136.5463" x="20.3125" y="667.0063">+search_value : str</text><text fill="#000000" font-family="sans-serif" font-size="14.0625" lengthAdjust="spacing" textLength="141.7923" x="20.3125" y="683.3759">+replace_value : str</text><text fill="#000000" font-family="sans-serif" font-size="14.0625" lengthAdjust="spacing" textLength="98.2452" x="20.3125" y="699.7455">+active : bool</text><line style="stroke:#666699;stroke-width:0.7813;" x1="12.5" x2="169.9173" y1="709.312" y2="709.312"/></g><!--class Utilisateur--><g class="entity" data-qualified-name="Utilisateur" data-source-line="127" id="ent0012"><rect fill="#F5F5FF" height="156.8481" rx="3.9063" ry="3.9063" style="stroke:#666699;stroke-width:0.7813;" width="133.6678" x="1166.5625" y="316.8125"/><ellipse cx="1190" cy="341.8125" fill="#ADD1B2" rx="17.1875" ry="17.1875" style="stroke:#181818;stroke-width:1.5625;"/><path d="M1194.6387,350.626 Q1193.7354,351.0898 1192.7344,351.3096 Q1191.7334,351.5537 1190.6348,351.5537 Q1186.7285,351.5537 1184.6533,348.9902 Q1182.6025,346.4023 1182.6025,341.5195 Q1182.6025,336.6367 1184.6533,334.0488 Q1186.7285,331.4609 1190.6348,331.4609 Q1191.7334,331.4609 1192.7344,331.7051 Q1193.7598,331.9492 1194.6387,332.4131 L1194.6387,336.6611 Q1193.6621,335.7578 1192.7344,335.3428 Q1191.8066,334.9033 1190.8301,334.9033 Q1188.7305,334.9033 1187.6563,336.5879 Q1186.582,338.248 1186.582,341.5195 Q1186.582,344.791 1187.6563,346.4756 Q1188.7305,348.1357 1190.8301,348.1357 Q1191.8066,348.1357 1192.7344,347.7207 Q1193.6621,347.2813 1194.6387,346.3779 L1194.6387,350.626 Z " fill="#000000"/><text fill="#000000" font-family="sans-serif" font-size="14.0625" font-weight="bold" lengthAdjust="spacing" textLength="83.6678" x="1211.875" y="346.6808">Utilisateur</text><line style="stroke:#666699;stroke-width:0.7813;" x1="1168.125" x2="1298.6678" y1="366.8125" y2="366.8125"/><text fill="#000000" font-family="sans-serif" font-size="14.0625" lengthAdjust="spacing" textLength="112.6717" x="1175.9375" y="386.1156">+full_name : str</text><text fill="#000000" font-family="sans-serif" font-size="14.0625" lengthAdjust="spacing" textLength="82.8644" x="1175.9375" y="402.4853">+email : str</text><text fill="#000000" font-family="sans-serif" font-size="14.0625" lengthAdjust="spacing" textLength="108.8951" x="1175.9375" y="418.8549">+company : str</text><text fill="#000000" font-family="sans-serif" font-size="14.0625" lengthAdjust="spacing" textLength="71.0266" x="1175.9375" y="435.2245">+role : str</text><text fill="#000000" font-family="sans-serif" font-size="14.0625" lengthAdjust="spacing" textLength="111.0924" x="1175.9375" y="451.5941">+password : str</text><line style="stroke:#666699;stroke-width:0.7813;" x1="1168.125" x2="1298.6678" y1="461.1606" y2="461.1606"/></g><!--link ParserService to LogService--><g class="link" data-entity-1="ent0003" data-entity-2="ent0002" data-link-type="dependency" data-source-line="140" id="lnk13"><path codeLine="140" d="M574.4063,168.4375 C604.1406,186 628.7031,200.5156 628.7031,200.5156 C628.7031,200.5156 788.0781,247.3906 788.0781,247.3906 C788.0781,247.3906 900.5781,267.7031 900.5781,267.7031 C900.5781,267.7031 901.9872,269.1303 913.8622,281.2553" fill="none" id="ParserService-to-LogService" style="stroke:#444444;stroke-width:1.5625;"/><polygon fill="#444444" points="920.4219,287.9531,915.0475,273.5333,914.9554,282.3716,906.1171,282.2795,920.4219,287.9531" style="stroke:#444444;stroke-width:1.5625;"/><text fill="#000000" font-family="sans-serif" font-size="20.3125" lengthAdjust="spacing" textLength="98.9838" x="789.6406" y="241.2451">journalise</text></g><!--link ExporterService to LogService--><g class="link" data-entity-1="ent0004" data-entity-2="ent0002" data-link-type="dependency" data-source-line="141" id="lnk14"><path codeLine="141" d="M862.9687,176.6094 C883.2344,203.9219 901.5706,228.6582 924.6956,259.83" fill="none" id="ExporterService-to-LogService" style="stroke:#444444;stroke-width:1.5625;"/><polygon fill="#444444" points="930.2813,267.3594,926.9223,252.3416,925.6265,261.0849,916.8832,259.7892,930.2813,267.3594" style="stroke:#444444;stroke-width:1.5625;"/><text fill="#000000" font-family="sans-serif" font-size="20.3125" lengthAdjust="spacing" textLength="98.9838" x="913.0781" y="241.2451">journalise</text></g><!--link AuthRouter to LogService--><g class="link" data-entity-1="ent0005" data-entity-2="ent0002" data-link-type="dependency" data-source-line="142" id="lnk15"><path codeLine="142" d="M1119.0156,201.0469 C1108.9844,212.8125 1102.1406,220.8281 1102.1406,220.8281 C1102.1406,220.8281 1096.9884,232.2549 1085.0665,258.6143" fill="none" id="AuthRouter-to-LogService" style="stroke:#444444;stroke-width:1.5625;"/><polygon fill="#444444" points="1081.2031,267.1563,1092.6928,256.9189,1084.4226,260.038,1081.3035,251.7677,1081.2031,267.1563" style="stroke:#444444;stroke-width:1.5625;"/><text fill="#000000" font-family="sans-serif" font-size="20.3125" lengthAdjust="spacing" textLength="98.9838" x="1103.7031" y="241.2451">journalise</text></g><!--reverse link Concession to MappingEntry--><g class="link" data-entity-1="ent0008" data-entity-2="ent0009" data-link-type="composition" data-source-line="145" id="lnk16"><path codeLine="145" d="M366.2367,513.7121 C382.1586,535.3527 387.7813,543.0156 403.4531,564.3438" fill="none" id="Concession-backto-MappingEntry" style="stroke:#444444;stroke-width:1.5625;"/><polygon fill="#444444" points="355.125,498.6094,355.6466,509.8646,366.2367,513.7121,365.7151,502.4568,355.125,498.6094" style="stroke:#444444;stroke-width:1.5625;"/><text fill="#000000" font-family="sans-serif" font-size="20.3125" lengthAdjust="spacing" textLength="12.9234" x="349.7213" y="529.3426">1</text><text fill="#000000" font-family="sans-serif" font-size="20.3125" lengthAdjust="spacing" textLength="35.9932" x="357.4618" y="547.3868">0..*</text></g><!--reverse link Concession to UOMEntry--><g class="link" data-entity-1="ent0008" data-entity-2="ent0010" data-link-type="aggregation" data-source-line="148" id="lnk17"><path codeLine="148" d="M280.2656,517.3594 C280.2656,550.6094 280.2656,567.75 280.2656,597.0469" fill="none" id="Concession-backto-UOMEntry" style="stroke:#444444;stroke-width:1.5625;"/><polygon fill="none" points="280.2656,498.6094,274.0156,507.9844,280.2656,517.3594,286.5156,507.9844,280.2656,498.6094" style="stroke:#444444;stroke-width:1.5625;"/><text fill="#000000" font-family="sans-serif" font-size="20.3125" lengthAdjust="spacing" textLength="35.9932" x="241.4671" y="580.6182">0..*</text></g><!--reverse link Concession to QCRule--><g class="link" data-entity-1="ent0008" data-entity-2="ent0011" data-link-type="aggregation" data-source-line="149" id="lnk18"><path codeLine="149" d="M195.6481,513.7991 C171.5856,547.0491 156.625,567.75 135.4375,597.0469" fill="none" id="Concession-backto-QCRule" style="stroke:#444444;stroke-width:1.5625;"/><polygon fill="none" points="206.6406,498.6094,196.0811,502.54,195.6481,513.7991,206.2076,509.8684,206.6406,498.6094" style="stroke:#444444;stroke-width:1.5625;"/><text fill="#000000" font-family="sans-serif" font-size="20.3125" lengthAdjust="spacing" textLength="35.9932" x="103.6896" y="580.6182">0..*</text></g><!--link ParserService to Concession--><g class="link" data-entity-1="ent0003" data-entity-2="ent0008" data-link-type="dependency" data-source-line="152" id="lnk19"><path codeLine="152" d="M430.4688,168.0156 C406.5313,203.9844 380.7873,242.6638 353.2248,284.0856" fill="none" id="ParserService-to-Concession" style="stroke:#444444;stroke-width:1.5625;stroke-dasharray:10.9375,10.9375;"/><polygon fill="#444444" points="348.0313,291.8906,361.0249,283.6455,352.3592,285.3865,350.6182,276.7208,348.0313,291.8906" style="stroke:#444444;stroke-width:1.5625;"/></g><!--link ParserService to ReportType--><g class="link" data-entity-1="ent0003" data-entity-2="ent0006" data-link-type="dependency" data-source-line="153" id="lnk20"><path codeLine="153" d="M541.7031,168.3281 C585.4844,206.0938 633.3906,247.3906 633.3906,247.3906 C633.3906,247.3906 719.3281,267.7031 719.3281,267.7031 C719.3281,267.7031 729.9954,282.5136 748.636,308.4355" fill="none" id="ParserService-to-ReportType" style="stroke:#444444;stroke-width:1.5625;stroke-dasharray:10.9375,10.9375;"/><polygon fill="#444444" points="754.1094,316.0469,750.9735,300.9809,749.5482,309.7041,740.8251,308.2788,754.1094,316.0469" style="stroke:#444444;stroke-width:1.5625;"/></g><!--link ParserService to ColumnSchema--><g class="link" data-entity-1="ent0003" data-entity-2="ent0007" data-link-type="dependency" data-source-line="154" id="lnk21"><path codeLine="154" d="M501.375,168.0156 C525.6875,216.4531 555.3893,275.6051 579.7486,324.1519" fill="none" id="ParserService-to-ColumnSchema" style="stroke:#444444;stroke-width:1.5625;stroke-dasharray:10.9375,10.9375;"/><polygon fill="#444444" points="583.9531,332.5313,583.2326,317.1593,580.4494,325.5485,572.0602,322.7653,583.9531,332.5313" style="stroke:#444444;stroke-width:1.5625;"/></g><!--link ParserService to MappingEntry--><g class="link" data-entity-1="ent0003" data-entity-2="ent0009" data-link-type="dependency" data-source-line="155" id="lnk22"><path codeLine="155" d="M471.0625,168.3438 C471.3438,264.2969 471.8491,441.7032 472.1616,554.8594" fill="none" id="ParserService-to-MappingEntry" style="stroke:#444444;stroke-width:1.5625;stroke-dasharray:10.9375,10.9375;"/><polygon fill="#444444" points="472.1875,564.2344,478.3986,550.1547,472.1659,556.4219,465.8987,550.1892,472.1875,564.2344" style="stroke:#444444;stroke-width:1.5625;"/></g><!--link ParserService to QCRule--><g class="link" data-entity-1="ent0003" data-entity-2="ent0011" data-link-type="dependency" data-source-line="156" id="lnk23"><path codeLine="156" d="M341.1563,168.3906 C244.8906,213.7344 130.2656,267.7031 130.2656,267.7031 C130.2656,267.7031 109.23,478.0309 98.2456,587.8434" fill="none" id="ParserService-to-QCRule" style="stroke:#444444;stroke-width:1.5625;stroke-dasharray:10.9375,10.9375;"/><polygon fill="#444444" points="97.3125,597.1719,104.9311,583.8013,98.0901,589.3982,92.4932,582.5571,97.3125,597.1719" style="stroke:#444444;stroke-width:1.5625;"/></g><!--link ExporterService to ReportType--><g class="link" data-entity-1="ent0004" data-entity-2="ent0006" data-link-type="dependency" data-source-line="157" id="lnk24"><path codeLine="157" d="M811.1406,176.6094 C810.9063,218.8281 810.6788,263.4533 810.4288,307.047" fill="none" id="ExporterService-to-ReportType" style="stroke:#444444;stroke-width:1.5625;stroke-dasharray:10.9375,10.9375;"/><polygon fill="#444444" points="810.375,316.4219,816.7055,302.3954,810.4198,308.6095,804.2057,302.3238,810.375,316.4219" style="stroke:#444444;stroke-width:1.5625;"/></g><!--link ExporterService to ColumnSchema--><g class="link" data-entity-1="ent0004" data-entity-2="ent0007" data-link-type="dependency" data-source-line="158" id="lnk25"><path codeLine="158" d="M707.5469,176.6094 C672.0781,200.25 641.2031,220.8281 641.2031,220.8281 C641.2031,220.8281 633.0789,273.7023 625.4383,323.468" fill="none" id="ExporterService-to-ColumnSchema" style="stroke:#444444;stroke-width:1.5625;stroke-dasharray:10.9375,10.9375;"/><polygon fill="#444444" points="624.0156,332.7344,632.3273,319.7832,625.2012,325.0124,619.9721,317.8863,624.0156,332.7344" style="stroke:#444444;stroke-width:1.5625;"/></g><!--link AuthRouter to Utilisateur--><g class="link" data-entity-1="ent0005" data-entity-2="ent0012" data-link-type="dependency" data-source-line="161" id="lnk26"><path codeLine="161" d="M1210.2813,201.0625 C1214.7656,238.4219 1218.7419,271.5825 1223.0075,307.1137" fill="none" id="AuthRouter-to-Utilisateur" style="stroke:#444444;stroke-width:1.5625;stroke-dasharray:10.9375,10.9375;"/><polygon fill="#444444" points="1224.125,316.4219,1228.6542,301.7147,1223.1938,308.6651,1216.2434,303.2046,1224.125,316.4219" style="stroke:#444444;stroke-width:1.5625;"/><text fill="#000000" font-family="sans-serif" font-size="20.3125" lengthAdjust="spacing" textLength="71.3913" x="1216.2031" y="241.2451">&#171;uses&#187;</text></g><?plantuml-src hLTPR-Cs47xtho1IeAki7MDJD0KsI0suZjmru6Fheui-2OmqjjbGf9QaxBYB_lSETPcItHI8gpp8cczcEFSmHYR4IF8aZP4nYPY2q30fMlgPYOGg6XFE19X30YIH_60_7Eo9XiyR9LCH3IINYkotpBYutj98xfdOa3NbsaL2JhNk6wFOKsfW54gnO7y1-U2mH0aZjtSkHSW8D2JaXpk7gAXuBeXD_UHRY-3pIyFAxuPt-3VCCQaYK0Nz9tm-VipeGobCPj7jRVPTcLe1ET_2W09fuzC0-ah9VQ7tn-mvwZK73XXo7hN-RhNUaP_VzA3Wmf__FXhuYxVhQELn6ilD0jIEXK0U7XQOBmv6Ybwl2E1Dm8GsL21yx_0MMCWP2ACjnBGfY5lyATMXJkHo4wmPjre-KxFDgJVPgxq1ursVgc-ZZ1VhJOTms07l4Ar2o_R8mbnhcucrp3aibDFsL0dqeaa6p8bg4l7WqbgFivYPQzVeTiY1gehXscOiZzbdgZIeCcpVAciteCv4gV0INeoYeV5imNJ86ai0L8T4rE1NjzkjUqPJ8uDGAjkJ7lBG2gwCy5yIgSmRpB1YGQXtcTuEERNdsarIAK0vzw8G6VOT4kDxRogpZn7Z-2l81RINgwmOBgltmMowdC_6_cfE-glb9t-w70r7W_voD9jUt0Bzr6pd4XjSOGiCi4kLv1nKrGDj1Hlq09INOjhloSemT1G3bQfwrZ3sJ7WGKuRLcg3gFOwO4nOyoLFmDGLjwfWjHtk2zXfrg00Fow3_iY1DeegLHLawwIli4M2tL-nkZLsGAd-wcboSapdO8bhQvVFmu8iqhhBns1-D_yX_3VBNb-mrmGhvL21V_F4uMFgBvOMkFCuc_T7K9z_R-XkEVbtD_v-Am-MGnc8HRh5MoYAZvPh1B6YZYjJZsgj_Mq6SoH6y89q9Po1WvOQWDQxmKYMBN5b1uvgkA57PICRMPbGt4Rq5C2uHPnVRGH1XSTlP_YGbhm4nDixsFBG7pWE3zLu3OveaEAdjoKVJ9mNnw5P1yR4j3wLZvytEJ0wQRXg84swR8hl9k0wT2tX534v2RvrGi7PfgM1bZ2fxLxD9pLQ79xSTWoBjW5vpIOi-D5HbpNz6tM-3USghwQvn8uNRO4TvMZDE0VeOmYcGPw2C-uNTi9nfl7WCLlFHqh-u1voXLAKrnH0tyvUDqteFn0aLXvhxajTaojbx3EO5Ri_zSTRrbzortk7-9NsjPSYelMJRwpRRW3MwMDAQtFJSonZkw_eruwQEtvC_PQe4DW5UhfjtWTTudMtt6bjkyW1ZBJNBJ4QBd15pTNj5tYF7rOTkz_rLhKjBTpUuD-aPKNaKAvlbN-2y-0jzZv20YEnLLEDrHMJ_h0XiIXkwPh2wtPupLCw0n_roLl8udi_0DLzFuSBePauQfvw3Q-SMGNIorSix49rrg5RERQLxt9UuptMlr_e7?></g></svg>